<svg xmlns="http://www.w3.org/2000/svg" width="80" height="27.688" viewBox="0 0 80 27.688">
    <defs>
        <style>
            .cls-1{fill:#f48734}.cls-1,.cls-2,.cls-3{fill-rule:evenodd}.cls-2,.cls-4{fill:#fff}.cls-3{fill:#f9fdfc}
        </style>
    </defs>
    <g id="_593593976" transform="translate(-375 -3606)">
        <path id="Path_30" d="M7293.109 13738.625a13.8 13.8 0 0 0-12.188 15.395c.96 7.015 7.3 13.116 15.392 12.07a13.836 13.836 0 0 0 7.19-24.362 13.591 13.591 0 0 0-10.394-3.103z" class="cls-1" data-name="Path 30" transform="translate(-6905.793 -10132.52)"/>
        <path id="Path_31" d="M11402.771 14201.684c-8.523 1.656-7.627 15.261 2.045 13.339 8.324-1.643 7.625-15.231-2.045-13.339zm-.823.685c-3.115.722-4.958 3.923-3.578 7.648.874 2.354 3.815 5.255 7.344 4.245a5.536 5.536 0 0 0 3.65-7.469c-.824-2.221-4.024-5.222-7.417-4.425z" class="cls-2" data-name="Path 31" transform="translate(-10970.627 -10589.736)"/>
        <path id="Path_32" d="M12602.9 14212.38l-.026 4.722c-.11.585-.437.624-.845.822l3.277.037c-.9-.512-.876.123-.876-2.542l.028-3.847 2.165-.011a20.146 20.146 0 0 1 1.633 2.4 27.049 27.049 0 0 0 1.772 2.468 3.532 3.532 0 0 0 2.54 1.642 3.987 3.987 0 0 0 3.117-.908c-1.633.074-2.068 1.521-4.623-1.766l-2.893-4.374c2.618-1.48 2.854-4.336 1.473-5.541-1.509-1.311-5.347-.911-7.641-.849 1.208.6.9 1.258.9 3.352zm1.53-1.156c6.771.247 4.552-4.686 3.279-5.667-.919-.709-2.018-.523-3.251-.61z" class="cls-2" data-name="Path 32" transform="translate(-12160.683 -10592.725)"/>
        <path id="Path_33" d="M7588 14215.383l1.67.073c-.423-.984 1.968-5.978 1.968-5.978a11.87 11.87 0 0 1 3.939-.073c.6 1.567 2.517 5.3 1.907 5.965l2.679.062a2.083 2.083 0 0 1-1.022-1.32c-.3-.694-.5-1.146-.748-1.792-.66-1.659-3.889-9.963-4.337-10.325-.537.822-3.527 8.8-4.212 10.437-.437 1.031-.698 2.676-1.844 2.951z" class="cls-3" data-name="Path 33" transform="translate(-7209.171 -10590.222)"/>
        <path id="Path_34" d="M9519.038 14228.274l9.136.025.012-3.165c-.735 1.692-.087 2.654-2.655 2.714-1.918.051-3.7.213-3.964-1.654a87.236 87.236 0 0 1 .025-10.811l.872-.361-3.464-.022c1.046.374 1 .075.984 2.653v9.478c-.073 1.018-.274.817-.946 1.143z" class="cls-2" data-name="Path 34" transform="translate(-9116.106 -10603.063)"/>
        <path id="Path_35" d="M8642.534 14221.263l-.011 8.618c0 1.131.135 1.556-.524 2.2l8.524.052.087-1.983c-.1.039-.149.039-.162.115l-.263.322c-.112.162-.122.262-.261.437-.623.9-2.306.723-3.34.7-2.257-.059-2.555-.607-2.555-2.854v-7.271c0-1.258-.187-1.781.386-2.566l-2.267-.036a4.317 4.317 0 0 1 .386 2.266z" class="cls-3" data-name="Path 35" transform="translate(-8250.035 -10607.011)"/>
        <path id="Path_36" d="M10284.051 14216.446c-9.4 6.7-16.514-7.424-8.812-10.711 4.1-1.755 6.431.8 7.44 1.334-.149-.625-.2-1.246-.9-1.57a9.3 9.3 0 0 0-6.917.012c-6.607 2.943-5.908 14.609 5.72 12.833 2.086-.327 2.785-.225 3.469-1.898z" class="cls-2" data-name="Path 36" transform="translate(-9858.412 -10593.029)"/>
        <path id="Path_37" d="M7902 14420.306l3.315.035a15.2 15.2 0 0 0-1.671-4.346 22.93 22.93 0 0 0-1.644 4.311z" class="cls-1" data-name="Path 37" transform="translate(-7519.257 -10801.558)"/>
        <path id="Path_38" d="M13251.745 14051.236v-1.981h-.745v-.261h1.779v.261h-.733v1.981zm1.337 0v-2.242h.45l.523 1.581c.05.148.088.263.111.337.025-.089.06-.211.11-.361l.549-1.557h.4v2.242h-.285v-1.881l-.663 1.881h-.26l-.65-1.919v1.919z" class="cls-4" data-name="Path 38" transform="translate(-12801.597 -10439.127)"/>
    </g>
</svg>
