<svg xmlns="http://www.w3.org/2000/svg" width="150" height="51.943" viewBox="0 0 150 51.943">
    <defs>
        <style>
            .cls-1{fill:#f48734}.cls-1,.cls-2,.cls-3{fill-rule:evenodd}.cls-2,.cls-4,.cls-5{fill:#734b34}.cls-3{fill:#f9fdfc}.cls-4{font-size:4px;font-family:ArialMT,Arial}.cls-5{font-size:11px;font-family:Times-Italic,Times;font-style:italic}
        </style>
    </defs>
    <g id="allcor_-_logo-" data-name="allcor - logo-" transform="translate(-5655.64 -13172.062)">
        <g id="_492884184" transform="translate(5655.64 13172.062)">
            <path id="Path_44" d="M5678.728 13172.263c-14.707 1.919-24.785 14.938-22.851 28.872 1.812 13.158 13.686 24.63 28.842 22.647a25.96 25.96 0 0 0 13.515-45.7 25.561 25.561 0 0 0-19.506-5.819z" class="cls-1" data-name="Path 44" transform="translate(-5655.639 -13172.063)"/>
            <path id="Path_45" d="M11879.581 13871.536c-15.992 3.127-14.3 28.624 3.823 25.032 15.62-3.096 14.305-28.578-3.823-25.032zm-1.549 1.27c-5.836 1.377-9.3 7.384-6.719 14.35 1.657 4.444 7.152 9.878 13.763 7.974a10.382 10.382 0 0 0 6.858-14.011c-1.548-4.165-7.539-9.8-13.902-8.313z" class="cls-2" data-name="Path 45" transform="translate(-11772.432 -13860.375)"/>
            <path id="Path_46" d="M13689.672 13890.742l-.047 8.84c-.2 1.114-.8 1.177-1.594 1.563l6.16.063c-1.687-.976-1.641.217-1.641-4.768l.031-7.23 4.087-.031a42.146 42.146 0 0 1 3.05 4.537 55.78 55.78 0 0 0 3.313 4.612c1.084 1.3 2.245 2.849 4.783 3.081a7.539 7.539 0 0 0 5.837-1.7c-3.08.14-3.886 2.833-8.669-3.328l-5.435-8.205c4.908-2.771 5.357-8.127 2.771-10.372-2.849-2.462-10.032-1.719-14.319-1.595 2.26 1.115 1.672 2.354 1.672 6.285zm2.879-2.183c12.7.465 8.53-8.793 6.146-10.62-1.734-1.347-3.793-1.006-6.1-1.161z" class="cls-2" data-name="Path 46" transform="translate(-13563.651 -13865.107)"/>
            <path id="Path_47" d="M6119 13896.141l3.127.123c-.79-1.842 3.7-11.191 3.7-11.191 1.95-.635 5.155-.341 7.384-.141 1.13 2.911 4.707 9.939 3.592 11.178l5.016.108a3.866 3.866 0 0 1-1.935-2.462 142.147 142.147 0 0 1-1.394-3.374c-1.238-3.112-7.292-18.686-8.127-19.382-1.006 1.548-6.61 16.533-7.9 19.583-.816 1.966-1.311 5.031-3.463 5.558zm7.338-12.044l6.223.077c-.015-1.455-2.337-7.2-3.143-8.158-.634.974-3.08 7.136-3.08 8.084z" class="cls-3" data-name="Path 47" transform="translate(-6111.827 -13860.18)"/>
            <path id="Path_48" d="M9034.078 13916.894l17.121.063.031-5.93c-1.394 3.173-.187 4.97-5 5.093-3.577.078-6.936.372-7.416-3.111-.526-3.746-.264-16.3.047-20.295l1.641-.682-6.5-.031c1.95.682 1.873.125 1.842 4.97v17.787c-.125 1.903-.512 1.532-1.766 2.136z" class="cls-2" data-name="Path 48" transform="translate(-8981.7 -13880.854)"/>
            <path id="Path_49" d="M7711.976 13902.242v16.177c-.016 2.121.263 2.911-.976 4.118l15.977.109.155-3.716c-.186.062-.279.077-.31.2l-.5.619c-.2.31-.232.479-.464.82-1.192 1.672-4.334 1.347-6.27 1.3-4.226-.124-4.8-1.146-4.783-5.356v-13.639c0-2.354-.372-3.344.712-4.83l-4.257-.047c.716 1.365.716 2.341.716 4.245z" class="cls-3" data-name="Path 49" transform="translate(-7679.181 -13886.762)"/>
            <path id="Path_50" d="M10193.158 13898.1c-17.617 12.572-30.977-13.916-16.533-20.094 7.693-3.3 12.059 1.5 13.963 2.508-.293-1.16-.371-2.336-1.687-2.957a17.488 17.488 0 0 0-12.973.031c-12.4 5.512-11.068 27.4 10.729 24.074 3.9-.605 5.2-.435 6.501-3.562z" class="cls-2" data-name="Path 50" transform="translate(-10098.208 -13865.42)"/>
            <g id="Group_9" data-name="Group 9" transform="translate(139.376 6.145)">
                <text id="TM" class="cls-4" transform="translate(0 4)">
                    <tspan x="0" y="0">TM</tspan>
                </text>
            </g>
            <text id="Alluring_Decor" class="cls-5" data-name="Alluring Decor" transform="translate(77.782 47.816)">
                <tspan x="0" y="0">Alluring Decor</tspan>
            </text>
        </g>
    </g>
</svg>
